<svg id="Layer_1" data-name="Layer 1" xmlns="http://www.w3.org/2000/svg" viewBox="0 0 252 42.36"><defs><style>.cls-1{fill:#ffffff;}</style></defs><path class="cls-1" d="M479.83,315.32a2.87,2.87,0,0,0,2.86,2.86H486V294.64h-6.16Z" transform="translate(-270 -284.82)"/><path class="cls-1" d="M483,284.82a3.73,3.73,0,1,0,3.72,3.72A3.73,3.73,0,0,0,483,284.82Z" transform="translate(-270 -284.82)"/><path class="cls-1" d="M488.89,315.62a2.57,2.57,0,0,0,2.57,2.57h3.78V285.34h-6.35Z" transform="translate(-270 -284.82)"/><path class="cls-1" d="M441.72,294a8.5,8.5,0,0,0-6.91,3.09V285.34h-6.32v32.85h3.88a2.32,2.32,0,0,0,2.32-2.32v-.28a8.62,8.62,0,0,0,7.05,3.21c6.49,0,11.41-5.33,11.41-12.41S448.23,294,441.72,294Zm-1.17,18.9c-3.6,0-6.06-2.77-6.06-6.5s2.46-6.49,6.06-6.49,6.08,2.89,6.08,6.49S444.29,312.89,440.55,312.89Z" transform="translate(-270 -284.82)"/><path class="cls-1" d="M515.68,285.34v11.74a8.53,8.53,0,0,0-6.91-3.09c-6.52,0-11.43,5.33-11.43,12.4s4.91,12.41,11.4,12.41a8.64,8.64,0,0,0,7.06-3.21v.28a2.32,2.32,0,0,0,2.32,2.32H522V285.34Zm-5.74,27.55c-3.75,0-6.08-2.9-6.08-6.5s2.33-6.49,6.08-6.49c3.6,0,6.05,2.77,6.05,6.49S513.54,312.89,509.94,312.89Z" transform="translate(-270 -284.82)"/><path class="cls-1" d="M471.26,307.59c0,3.77-2.09,5.3-4.82,5.3s-4.81-1.53-4.81-5.3V294.64h-6.34v13.51c0,7.44,5.25,10.65,11.15,10.65s11.13-3.21,11.13-10.65V294.64h-6.31Z" transform="translate(-270 -284.82)"/><rect class="cls-1" x="131.55" y="39.37" width="26.91" height="2.99"/><path class="cls-1" d="M300.32,318.19h-3.77a2.57,2.57,0,0,1-2.57-2.57V285.38h6.34Z" transform="translate(-270 -284.82)"/><path class="cls-1" d="M308.25,306.41c0,3.59,2.36,6.48,6.07,6.48s6.08-2.76,6.08-6.48-2.46-6.48-6.08-6.48-6.07,2.89-6.07,6.48m18.14,11.78h-3.62a2.57,2.57,0,0,1-2.57-2.57v0a8.64,8.64,0,0,1-7,3.2c-6.48,0-11.39-5.31-11.39-12.38S306.68,294,313.16,294a8.62,8.62,0,0,1,7,3.22v-2.59h6.19Z" transform="translate(-270 -284.82)"/><path class="cls-1" d="M335,318.18h-3.77a2.57,2.57,0,0,1-2.57-2.56V285.38H335Z" transform="translate(-270 -284.82)"/><path class="cls-1" d="M343.16,306.41a6.25,6.25,0,1,0,6.24-6.48,6.15,6.15,0,0,0-6.24,6.48m19,0c0,7.09-5.42,12.38-12.75,12.38s-12.7-5.29-12.7-12.38S342.09,294,349.4,294s12.75,5.29,12.75,12.38" transform="translate(-270 -284.82)"/><path class="cls-1" d="M401.56,303.2v15h-3.75a2.56,2.56,0,0,1-2.56-2.56V305.24c0-3.4-1.73-5.27-4.59-5.27s-5,1.78-5,5.32v12.89h-3.77a2.57,2.57,0,0,1-2.57-2.56V305.24c0-3.4-1.69-5.27-4.58-5.27-2.72,0-5,1.78-5,5.32v12.89H366a2.57,2.57,0,0,1-2.57-2.56v-21h6.17v2.77a7.86,7.86,0,0,1,6.92-3.4,8.92,8.92,0,0,1,7.77,4c1.82-3,4.9-4,8-4,5.53,0,9.27,3.71,9.27,9.17" transform="translate(-270 -284.82)"/><path class="cls-1" d="M290.6,299.42a2.58,2.58,0,0,1-3.28,1.32,19.55,19.55,0,0,0-6.55-1.42c-2.41,0-3.52.79-3.55,2.08s1.34,1.73,3.47,2.08l2.87.36c5.1.61,8.93,3,8.85,7.45-.09,4.9-4.07,7.69-12,7.55A21.81,21.81,0,0,1,270,315.89l2.21-4.91a18.67,18.67,0,0,0,8.31,2.59c3.49.06,5.31-.54,5.34-2.25s-2.24-1.81-5.3-2.22l-1.39-.2c-6.9-1.09-8.62-3.7-8.55-7.51.09-4.86,4.71-7.41,10.24-7.32a24.45,24.45,0,0,1,10.91,2.77Z" transform="translate(-270 -284.82)"/></svg>